
        <svg xmlns="http://www.w3.org/2000/svg" xmlns:xlink="http://www.w3.org/1999/xlink" version="1.1" width="3187.5" 
        height="999.6456804963731" viewBox="0 0 3187.5 999.6456804963731">
			
			<g transform="scale(9.375) translate(10, 10)">
				<defs id="SvgjsDefs6115"></defs><g id="SvgjsG6116" featureKey="JxkrKE-0" transform="matrix(1.0309278350515463,0,0,1.0309278350515463,-1.5463917525773194,-8.230928047416135)" fill="#e3cd8f"><g xmlns="http://www.w3.org/2000/svg"><path d="M1.5,63.883v0.021v21.691v0.021l16.462,6.398l16.463-6.398v-0.021V63.904v-0.021l-16.463-6.398L1.5,63.883z M4.5,68.289   l11.962,4.65v15.275L4.5,83.564V68.289z M31.425,83.564l-11.963,4.65V72.939l11.963-4.65V83.564z M18.01,70.285h-0.096   L5.611,65.504l12.351-4.801l12.351,4.801L18.01,70.285z"></path><path d="M82.037,57.484l-16.462,6.398v0.021v21.691v0.021l16.462,6.398L98.5,85.617v-0.021V63.904v-0.021L82.037,57.484z    M68.575,68.289l11.962,4.65v15.275l-11.962-4.65V68.289z M95.5,83.564l-11.963,4.65V72.939l11.963-4.65V83.564z M82.085,70.285   h-0.096l-12.303-4.781l12.351-4.801l12.351,4.801L82.085,70.285z"></path><path d="M67.425,36.118v-0.022v-21.69v-0.022L50.962,7.984L34.5,14.382v0.022v21.69v0.022l16.462,6.398L67.425,36.118z    M64.425,34.065l-11.963,4.649V23.439l11.963-4.649V34.065z M50.962,11.203l12.351,4.801L51.01,20.785h-0.096l-12.303-4.781   L50.962,11.203z M37.5,18.79l11.962,4.649v15.275L37.5,34.065V18.79z"></path><rect x="38.483" y="73.094" width="3" height="3"></rect><rect x="56.482" y="73.094" width="3" height="3"></rect><rect x="50.483" y="73.094" width="2.999" height="3"></rect><rect x="44.483" y="73.094" width="3" height="3"></rect><rect x="28.561" y="55.533" transform="matrix(0.7071 0.7071 -0.7071 0.7071 49.1331 -4.5514)" width="3" height="3"></rect><rect x="41.288" y="42.805" transform="matrix(0.7071 -0.7071 0.7071 0.7071 -18.7962 43.2324)" width="3" height="3"></rect><rect x="37.046" y="47.048" transform="matrix(0.7071 0.7071 -0.7071 0.7071 45.618 -13.0369)" width="3" height="3"></rect><rect x="32.803" y="51.291" transform="matrix(-0.7071 -0.7071 0.7071 -0.7071 21.2295 114.3756)" width="3" height="3"></rect><rect x="71.94" y="55.533" transform="matrix(-0.7071 0.7071 -0.7071 -0.7071 165.6976 45.4322)" width="3" height="3"></rect><rect x="63.454" y="47.048" transform="matrix(0.7071 -0.7071 0.7071 0.7071 -15.3036 60.1487)" width="3" height="3"></rect><rect x="67.697" y="51.291" transform="matrix(-0.7071 0.7071 -0.7071 -0.7071 155.4558 41.1896)" width="3" height="3"></rect><rect x="59.212" y="42.805" transform="matrix(0.7071 -0.7071 0.7071 0.7071 -13.5464 55.9065)" width="3" height="3"></rect></g></g><g id="SvgjsG6117" featureKey="nameFeature-0" transform="matrix(1.6186467433026843,0,0,1.6186467433026843,118.38135364261277,23.849142066717434)" fill="#f0d791"><path d="M1 20 l0 -16 l3.24 0 c2.06 0 2.6 1.26 2.76 4.28 l0 0.64 c-0.16 3.02 -0.7 4.28 -2.76 4.28 l-1.24 0 l0 6.8 l-2 0 z M3 11.6 l1.24 0 c0.6 0 0.82 -0.5 0.9 -2.68 l0 -0.64 c-0.08 -2.18 -0.3 -2.68 -0.9 -2.68 l-1.24 0 l0 6 z M8.200000000000001 11.58 c0 -5.58 0.12 -7.78 3.12 -7.78 s3.12 2.2 3.12 7.78 c0 6.4 -0.12 8.62 -3.12 8.62 s-3.12 -2.22 -3.12 -8.62 z M10.2 11.58 c0 5.78 0 6.62 1.12 6.62 s1.12 -0.84 1.12 -6.62 c0 -5.2 0 -6.18 -1.12 -6.18 s-1.12 0.98 -1.12 6.18 z M16.240000000000002 20 l0 -16 l3.24 0 c2.06 0 2.76 1.26 2.76 3.68 c0 2.18 -0.26 3.42 -0.88 4.02 l0 0.12 c0.52 0.18 0.68 1.12 0.88 3.46 l0.4 4.72 l-2 0 l-0.26 -4.72 c-0.14 -2.38 -0.5 -2.88 -1.1 -2.88 l-1.04 0 l0 7.6 l-2 0 z M18.240000000000002 10.8 l1.24 0 c0.7 0 0.9 -0.7 0.9 -3.12 c0 -1.58 -0.3 -2.08 -0.9 -2.08 l-1.24 0 l0 5.2 z M23.44 5.800000000000001 l0 -1.8 l6 0 l0 1.8 l-2 0 l0 14.2 l-2 0 l0 -14.2 l-2 0 z M30.64 20 l0 -16 l4.2 0 l0 1.6 l-2.2 0 l0 6 l1.8 0 l0 1.6 l-1.8 0 l0 6.8 l-2 0 z M36.04 11.58 c0 -5.58 0.12 -7.78 3.12 -7.78 s3.12 2.2 3.12 7.78 c0 6.4 -0.12 8.62 -3.12 8.62 s-3.12 -2.22 -3.12 -8.62 z M38.04 11.58 c0 5.78 0 6.62 1.12 6.62 s1.12 -0.84 1.12 -6.62 c0 -5.2 0 -6.18 -1.12 -6.18 s-1.12 0.98 -1.12 6.18 z M44.08 20 l0 -16 l2 0 l0 14 l2.6 0 l0 2 l-4.6 0 z M49.879999999999995 20 l0 -16 l2 0 l0 16 l-2 0 z M53.67999999999999 11.58 c0 -5.58 0.12 -7.78 3.12 -7.78 s3.12 2.2 3.12 7.78 c0 6.4 -0.12 8.62 -3.12 8.62 s-3.12 -2.22 -3.12 -8.62 z M55.67999999999999 11.58 c0 5.78 0 6.62 1.12 6.62 s1.12 -0.84 1.12 -6.62 c0 -5.2 0 -6.18 -1.12 -6.18 s-1.12 0.98 -1.12 6.18 z M65.92 11.58 c0 -5.58 0.12 -7.78 3.12 -7.78 s3.12 2.2 3.12 7.78 c0 6.4 -0.12 8.62 -3.12 8.62 s-3.12 -2.22 -3.12 -8.62 z M67.92 11.58 c0 5.78 0 6.62 1.12 6.62 s1.12 -0.84 1.12 -6.62 c0 -5.2 0 -6.18 -1.12 -6.18 s-1.12 0.98 -1.12 6.18 z M73.96000000000001 20 l0 -16 l3.24 0 c2.06 0 2.6 1.26 2.76 4.28 l0 0.64 c-0.16 3.02 -0.7 4.28 -2.76 4.28 l-1.24 0 l0 6.8 l-2 0 z M75.96000000000001 11.6 l1.24 0 c0.6 0 0.82 -0.5 0.9 -2.68 l0 -0.64 c-0.08 -2.18 -0.3 -2.68 -0.9 -2.68 l-1.24 0 l0 6 z M80.56000000000002 5.800000000000001 l0 -1.8 l6 0 l0 1.8 l-2 0 l0 14.2 l-2 0 l0 -14.2 l-2 0 z M87.76000000000002 20 l0 -16 l2 0 l0 16 l-2 0 z M91.76000000000002 20 l0 -16 l1.8 0 l2.1 10 l0.2 0 l2.1 -10 l1.8 0 l0 16 l-2 0 l0 -8 l-1.42 8 l-1.2 0 l-1.38 -8 l0 8 l-2 0 z M101.76000000000002 20 l0 -16 l2 0 l0 16 l-2 0 z M104.96000000000002 20 l3.6 -14.4 l-3.2 0 l0 -1.6 l5.6 0 l-3.5 14 l3.1 0 l0 2 l-5.6 0 z M112.16000000000003 20 l0 -16 l4.6 0 l0 1.6 l-2.6 0 l0 5.2 l2.2 0 l0 1.6 l-2.2 0 l0 5.6 l2.6 0 l0 2 l-4.6 0 z M118.16000000000003 20 l0 -16 l3.24 0 c2.06 0 2.76 1.26 2.76 3.68 c0 2.18 -0.26 3.42 -0.88 4.02 l0 0.12 c0.52 0.18 0.68 1.12 0.88 3.46 l0.4 4.72 l-2 0 l-0.26 -4.72 c-0.14 -2.38 -0.5 -2.88 -1.1 -2.88 l-1.04 0 l0 7.6 l-2 0 z M120.16000000000003 10.8 l1.24 0 c0.7 0 0.9 -0.7 0.9 -3.12 c0 -1.58 -0.3 -2.08 -0.9 -2.08 l-1.24 0 l0 5.2 z"></path></g>
			</g>
		</svg>
	